<svg width="20" height="20" viewBox="0 0 20 20" fill="none" xmlns="http://www.w3.org/2000/svg">
<path d="M5.62354 8.13799V18.938M12.8853 4.42999L11.9775 8.13799H17.2695C17.5514 8.13799 17.8293 8.20305 18.0814 8.32802C18.3335 8.45299 18.5528 8.63444 18.7219 8.85799C18.891 9.08154 19.0053 9.34106 19.0557 9.61599C19.1061 9.89093 19.0913 10.1737 19.0123 10.442L16.8974 17.642C16.7874 18.0159 16.5581 18.3443 16.2438 18.578C15.9296 18.8117 15.5474 18.938 15.1546 18.938H2.90039C2.41891 18.938 1.95715 18.7483 1.61669 18.4108C1.27623 18.0732 1.08496 17.6154 1.08496 17.138V9.93799C1.08496 9.4606 1.27623 9.00276 1.61669 8.6652C1.95715 8.32763 2.41891 8.13799 2.90039 8.13799H5.40569C5.74343 8.13781 6.07443 8.04422 6.36147 7.86774C6.64851 7.69125 6.8802 7.43888 7.0305 7.13899L10.1621 0.937988C10.5902 0.943244 11.0115 1.04434 11.3946 1.23372C11.7777 1.42311 12.1127 1.69588 12.3746 2.03167C12.6364 2.36746 12.8184 2.75757 12.9068 3.17287C12.9952 3.58817 12.9879 4.01791 12.8853 4.42999Z" stroke="white" stroke-width="0.9" stroke-linecap="round" stroke-linejoin="round"/>
</svg>
