<svg width="19" height="20" viewBox="0 0 19 20" fill="none" xmlns="http://www.w3.org/2000/svg">
<path d="M13.6286 12.238V1.43799M6.77031 15.946L7.6276 12.238H2.62961C2.36343 12.238 2.10091 12.1729 1.86283 12.048C1.62475 11.923 1.41766 11.7415 1.25795 11.518C1.09825 11.2944 0.990311 11.0349 0.942695 10.76C0.89508 10.485 0.909092 10.2023 0.983622 9.93399L2.9811 2.73399C3.08498 2.3601 3.30156 2.03167 3.59835 1.79799C3.89513 1.56431 4.25611 1.43799 4.62709 1.43799H16.2005C16.6552 1.43799 17.0913 1.62763 17.4129 1.9652C17.7344 2.30276 17.915 2.7606 17.915 3.23799V10.438C17.915 10.9154 17.7344 11.3732 17.4129 11.7108C17.0913 12.0483 16.6552 12.238 16.2005 12.238H13.8344C13.5154 12.2382 13.2028 12.3318 12.9317 12.5082C12.6606 12.6847 12.4418 12.9371 12.2998 13.237L9.34217 19.438C8.93789 19.4327 8.53997 19.3316 8.17814 19.1423C7.81631 18.9529 7.49992 18.6801 7.25261 18.3443C7.00531 18.0085 6.83348 17.6184 6.74996 17.2031C6.66644 16.7878 6.6734 16.3581 6.77031 15.946Z" stroke="white" stroke-width="0.9" stroke-linecap="round" stroke-linejoin="round"/>
</svg>
