<svg width="18" height="17" viewBox="0 0 18 17" fill="none" xmlns="http://www.w3.org/2000/svg">
<path d="M5.92823 5.2684L0.701596 5.97338L0.609024 5.99091C0.468887 6.02552 0.341135 6.09411 0.238812 6.18968C0.136489 6.28524 0.0632617 6.40436 0.0266086 6.53487C-0.0100444 6.66538 -0.0088103 6.80259 0.0301849 6.93251C0.0691801 7.06243 0.144539 7.18039 0.248567 7.27435L4.03501 10.7032L3.14206 15.5466L3.13141 15.6304C3.12283 15.7653 3.15292 15.8998 3.21861 16.0203C3.2843 16.1407 3.38322 16.2428 3.50525 16.316C3.62727 16.3892 3.76801 16.4309 3.91306 16.4369C4.05812 16.4428 4.20226 16.4128 4.33075 16.3499L9.00522 14.0635L13.669 16.3499L13.751 16.385C13.8862 16.4345 14.0331 16.4497 14.1768 16.429C14.3204 16.4083 14.4555 16.3524 14.5682 16.267C14.681 16.1817 14.7673 16.07 14.8183 15.9434C14.8693 15.8168 14.8832 15.6799 14.8586 15.5466L13.9648 10.7032L17.7529 7.27359L17.8168 7.20881C17.908 7.10422 17.9679 6.97899 17.9902 6.84587C18.0125 6.71276 17.9965 6.57652 17.9438 6.45104C17.8911 6.32555 17.8036 6.21531 17.6902 6.13154C17.5768 6.04776 17.4415 5.99345 17.2982 5.97414L12.0716 5.2684L9.73515 0.863239C9.66754 0.735607 9.56288 0.62813 9.43301 0.552975C9.30314 0.47782 9.15325 0.437988 9.00031 0.437988C8.84736 0.437988 8.69747 0.47782 8.5676 0.552975C8.43773 0.62813 8.33307 0.735607 8.26547 0.863239L5.92823 5.2684Z" fill="#FF8F00"/>
</svg>
