<svg width="8" height="9" viewBox="0 0 8 9" fill="none" xmlns="http://www.w3.org/2000/svg">
<path d="M7.87262 4.43805C7.87351 4.55341 7.83844 4.66618 7.77229 4.76069C7.70613 4.8552 7.61217 4.92675 7.50348 4.96539L5.27316 5.77645L4.46246 8.00641C4.4225 8.11406 4.35056 8.2069 4.25629 8.27246C4.16202 8.33802 4.04994 8.37317 3.93512 8.37317C3.82029 8.37317 3.70822 8.33802 3.61395 8.27246C3.51968 8.2069 3.44773 8.11406 3.40777 8.00641L2.59707 5.77609L0.366758 4.96539C0.259109 4.92543 0.166266 4.85349 0.100704 4.75922C0.0351417 4.66495 0 4.55287 0 4.43805C0 4.32322 0.0351417 4.21115 0.100704 4.11688C0.166266 4.02261 0.259109 3.95066 0.366758 3.9107L2.59707 3.1L3.40777 0.869688C3.44773 0.762038 3.51968 0.669196 3.61395 0.603634C3.70822 0.538071 3.82029 0.50293 3.93512 0.50293C4.04994 0.50293 4.16202 0.538071 4.25629 0.603634C4.35056 0.669196 4.4225 0.762038 4.46246 0.869688L5.27352 3.1L7.50348 3.9107C7.61217 3.94935 7.70613 4.0209 7.77229 4.11541C7.83844 4.20992 7.87351 4.32269 7.87262 4.43805Z" fill="#CF2128"/>
</svg>
