<svg width="120" height="26" viewBox="0 0 120 26" fill="none" xmlns="http://www.w3.org/2000/svg">
<path d="M33.6909 5.50688C33.2952 4.03183 32.1294 2.86999 30.6489 2.47575C27.9653 1.75928 17.205 1.75928 17.205 1.75928C17.205 1.75928 6.44472 1.75928 3.76119 2.47575C2.28079 2.86999 1.11473 4.03183 0.719067 5.50688C0 8.1807 0 13.7592 0 13.7592C0 13.7592 0 19.3379 0.719067 22.0116C1.11473 23.4865 2.28079 24.6485 3.76119 25.0426C6.44472 25.7593 17.205 25.7593 17.205 25.7593C17.205 25.7593 27.9653 25.7593 30.6489 25.0426C32.1294 24.6485 33.2952 23.4865 33.6909 22.0116C34.4101 19.3379 34.4101 13.7592 34.4101 13.7592C34.4101 13.7592 34.4101 8.1807 33.6909 5.50688Z" fill="#ED1D24"/>
<path d="M13.7644 18.9021L22.7041 13.7593L13.7644 8.61638V18.9021Z" fill="white"/>
<path d="M59.7917 20.7319C60.0011 20.1869 60.1064 19.2962 60.1064 18.06V12.8513C60.1064 11.6515 60.0011 10.7746 59.7917 10.2199C59.5819 9.6656 59.2123 9.38816 58.6834 9.38816C58.1724 9.38816 57.8117 9.6656 57.6022 10.2199C57.3924 10.7746 57.2875 11.6515 57.2875 12.8513V18.06C57.2875 19.2962 57.3877 20.1869 57.5887 20.7319C57.7891 21.2776 58.1539 21.55 58.6834 21.55C59.2123 21.55 59.5819 21.2776 59.7917 20.7319ZM55.5499 23.3499C54.7922 22.8414 54.2539 22.0504 53.9351 20.9774C53.6156 19.9052 53.4562 18.478 53.4562 16.6963V14.2694C53.4562 12.4697 53.6383 11.0243 54.0034 9.93363C54.3682 8.84289 54.9381 8.04776 55.714 7.54765C56.4893 7.04789 57.5065 6.79775 58.7656 6.79775C60.0062 6.79775 61.0004 7.05244 61.7486 7.56124C62.4964 8.0702 63.0439 8.86583 63.3908 9.94725C63.737 11.029 63.9106 12.4697 63.9106 14.2694V16.6963C63.9106 18.478 63.7417 19.9098 63.4043 20.9913C63.0666 22.0729 62.5191 22.8639 61.7621 23.3635C61.0048 23.8634 59.9788 24.1135 58.6834 24.1135C57.3512 24.1135 56.3066 23.8587 55.5499 23.3499Z" fill="white"/>
<path d="M114.157 9.70076C113.965 9.93714 113.837 10.3235 113.773 10.8595C113.709 11.3959 113.678 12.2093 113.678 13.3001V14.5H116.442V13.3001C116.442 12.2277 116.405 11.4142 116.332 10.8595C116.259 10.3052 116.127 9.91457 115.936 9.68713C115.744 9.45982 115.448 9.34616 115.046 9.34616C114.645 9.34616 114.348 9.46459 114.157 9.70076ZM113.678 16.7361V17.5815C113.678 18.6544 113.709 19.4587 113.773 19.9948C113.837 20.5311 113.969 20.9221 114.17 21.1676C114.371 21.4127 114.681 21.5357 115.101 21.5357C115.666 21.5357 116.054 21.3175 116.264 20.881C116.474 20.4447 116.588 19.7177 116.606 18.6994L119.863 18.8904C119.881 19.0363 119.89 19.2362 119.89 19.4902C119.89 21.0357 119.466 22.1902 118.618 22.9537C117.77 23.7169 116.569 24.0989 115.019 24.0989C113.158 24.0989 111.853 23.5173 111.105 22.3535C110.357 21.1905 109.983 19.3907 109.983 16.9544V14.0364C109.983 11.5276 110.371 9.69646 111.146 8.54159C111.921 7.38732 113.249 6.81009 115.128 6.81009C116.423 6.81009 117.418 7.04647 118.111 7.51902C118.804 7.99204 119.293 8.72832 119.576 9.72785C119.858 10.7278 120 12.1097 120 13.8728V16.7361H113.678Z" fill="white"/>
<path d="M46.3532 16.4232L42.0562 0.961369H45.8056L47.3108 7.96964C47.6942 9.69709 47.9768 11.1695 48.1592 12.3872H48.2688C48.3964 11.5147 48.6793 10.0514 49.1172 7.99698L50.6772 0.961369H54.4266L50.0751 16.4232V23.8408H46.3532V16.4232Z" fill="white"/>
<path d="M76.105 7.12463V23.8406H73.1492L72.8206 21.7955H72.7387C71.9357 23.3406 70.7314 24.113 69.126 24.113C68.0131 24.113 67.1921 23.7499 66.6629 23.0224C66.1336 22.2957 65.8693 21.1591 65.8693 19.6139V7.12463H69.6461V19.3956C69.6461 20.1414 69.7283 20.673 69.8925 20.9909C70.0566 21.3093 70.3304 21.4681 70.7134 21.4681C71.042 21.4681 71.3567 21.3684 71.6575 21.1679C71.9587 20.9681 72.1821 20.714 72.3282 20.4048V7.12463H76.105Z" fill="white"/>
<path d="M95.4773 7.12463V23.8406H92.5215L92.1929 21.7955H92.1113C91.3077 23.3406 90.1037 24.113 88.4983 24.113C87.3853 24.113 86.5644 23.7499 86.0352 23.0224C85.5059 22.2957 85.2416 21.1591 85.2416 19.6139V7.12463H89.0184V19.3956C89.0184 20.1414 89.1003 20.673 89.2645 20.9909C89.4289 21.3093 89.7026 21.4681 90.0857 21.4681C90.4143 21.4681 90.729 21.3684 91.0298 21.1679C91.331 20.9681 91.5543 20.714 91.7005 20.4048V7.12463H95.4773Z" fill="white"/>
<path d="M86.368 3.98886H82.6186V23.8408H78.924V3.98886H75.1746V0.96187H86.368V3.98886Z" fill="white"/>
<path d="M104.516 16.6153C104.516 17.8334 104.465 18.7879 104.365 19.4785C104.264 20.1698 104.096 20.6605 103.858 20.951C103.621 21.242 103.301 21.3873 102.901 21.3873C102.59 21.3873 102.303 21.3149 102.039 21.169C101.774 21.0238 101.56 20.8057 101.395 20.5145V11.025C101.523 10.5708 101.742 10.198 102.052 9.90704C102.362 9.61657 102.699 9.47077 103.065 9.47077C103.448 9.47077 103.744 9.62087 103.954 9.92063C104.164 10.2205 104.31 10.7251 104.392 11.4343C104.474 12.1431 104.516 13.1521 104.516 14.4609V16.6153ZM107.977 9.7968C107.749 8.74272 107.379 7.97924 106.869 7.50622C106.358 7.03392 105.655 6.79741 104.762 6.79741C104.068 6.79741 103.421 6.99296 102.819 7.38358C102.217 7.77459 101.751 8.28822 101.423 8.92443H101.395L101.395 0.116358H97.7555V23.8403H100.875L101.259 22.259H101.34C101.632 22.8224 102.07 23.2679 102.654 23.5951C103.238 23.9223 103.886 24.0859 104.597 24.0859C105.874 24.0859 106.814 23.4995 107.416 22.3271C108.018 21.1543 108.319 19.3231 108.319 16.8323V14.1872C108.319 12.315 108.205 10.8515 107.977 9.7968Z" fill="white"/>
</svg>
